<?xml version="1.0" standalone="no"?><!DOCTYPE svg PUBLIC "-//W3C//DTD SVG 1.1//EN" "http://www.w3.org/Graphics/SVG/1.1/DTD/svg11.dtd"><svg t="1539797128017" class="icon" style="" viewBox="0 0 1024 1024" version="1.1" xmlns="http://www.w3.org/2000/svg" p-id="1233" xmlns:xlink="http://www.w3.org/1999/xlink" width="16" height="16"><defs><style type="text/css"></style></defs><path d="M512 4.30197484C231.60913356 4.30197484 4.30197484 231.60913356 4.30197484 512S231.60913356 1019.69802516 512 1019.69802516 1019.69802516 792.39086644 1019.69802516 512 792.39086644 4.30197484 512 4.30197484z m-72.93338475 333.70142762c0 2.72224141-0.9074138 4.99077593-2.83566816 6.91903027-1.92825434 1.92825434-4.19678886 2.83566814-6.91903028 2.83566816l-85.4103246 34.1414445c-1.92825434 0-3.51622851-0.4537069-5.21762942-1.47454744l-67.37547517-46.27810418c-3.74308197-2.38196122-5.44448283-6.69217682-4.19678887-11.00239241 1.24769399-4.31021558 4.99077593-7.03245701 9.41441826-7.032457l152.7857998-48.77349214c2.72224141 0 4.99077593 0.9074138 6.91903028 2.83566813 1.92825434 1.92825434 2.83566814 4.19678886 2.83566816 6.91903028v60.91015183z m297.17802188-68.282889c0 5.44448283-4.42364231 9.75469843-9.75469844 9.75469844l-178.64709331 48.77349213c-5.44448283 0-9.75469843 4.42364231-9.7546984 9.75469843V836.40043609c0 2.72224141-0.9074138 4.99077593-2.83566817 6.91903029-1.92825434 1.92825434-4.19678886 2.83566814-6.9190303 2.83566815H516.53706903c-3.06252158 0-5.67133629-1.24769399-7.59959061-3.62965523L451.88383528 771.86062906c-2.38196122-3.06252158-2.83566814-6.80560356-1.247694-10.32183206 1.70140089-3.51622851 4.99077593-5.55790959 8.84728463-5.55790956h-4.65049576c5.44448283 0 9.75469843-4.42364231 9.75469843-9.75469843V267.33855222c0-2.72224141 0.9074138-4.99077593 2.83566814-6.91903027 1.92825434-1.92825434 4.19678886-2.83566814 6.91903028-2.83566816l139.51487287-48.77349213c5.44448283 0 9.75469843-4.31021558 9.75469842-9.75469845v1.36112073c0-3.62965524 1.81482761-6.80560356 5.10420267-8.50700446 3.28937506-1.81482761 6.91903028-1.58797418 9.98155188 0.34028017l93.00991524 59.66245785c2.83566814 1.81482761 4.53706903 4.7639225 4.53706905 8.16672424v9.64127172z" p-id="1234" fill="#55ce63"></path></svg>